<?xml version="1.0" encoding="utf-8"?>
<!-- Generator: Adobe Illustrator 27.2.0, SVG Export Plug-In . SVG Version: 6.00 Build 0)  -->
<svg version="1.1" id="Слой_1" xmlns="http://www.w3.org/2000/svg" xmlns:xlink="http://www.w3.org/1999/xlink" x="0px" y="0px"
	 viewBox="0 0 1912.52 684.79" style="enable-background:new 0 0 1912.52 684.79;" xml:space="preserve">
<style type="text/css">
	.st0{fill-rule:evenodd;clip-rule:evenodd;fill:#007ABC;}
	.st1{fill-rule:evenodd;clip-rule:evenodd;fill:#00619F;}
</style>
<g>
	<polygon class="st0" points="768.11,259.47 900.29,514.13 1000.85,514.13 822.38,170.3 713.84,170.3 647.72,297.67 698,394.53 	"/>
	<path class="st1" d="M477.52,467.75l-24.07,46.37H352.89l74.35-143.23L477.52,467.75z M585.64,259.47l132.18,254.66h100.55
		L639.91,170.3H531.37l-66.11,127.37l50.27,96.86L585.64,259.47z"/>
	<polygon class="st0" points="403.17,259.39 535.24,513.83 635.72,513.83 659.77,467.49 609.54,370.72 585.48,417.07 457.39,170.3 
		348.95,170.3 170.64,513.83 271.1,513.83 	"/>
	<g>
		<g>
			<path d="M1096.01,498.5h-5.96v15.02h-8.57v-37.27h8.57v15.07h6.18l9.8-15.07h9.11l-12.19,18l12.57,19.28h-9.8L1096.01,498.5z"/>
			<path d="M1120.88,476.24h8.57v24.28l17.78-24.28h8.09v37.27h-8.52v-24.23l-17.78,24.23h-8.15V476.24z"/>
			<path d="M1190.66,477.89c2.43,1.1,4.3,2.66,5.62,4.69c1.31,2.02,1.97,4.42,1.97,7.19c0,2.73-0.66,5.12-1.97,7.16
				c-1.31,2.04-3.19,3.6-5.62,4.69c-2.43,1.08-5.3,1.62-8.6,1.62h-7.51v10.28h-8.63v-37.27h16.13
				C1185.36,476.24,1188.23,476.79,1190.66,477.89z M1187.49,494.53c1.35-1.12,2.02-2.71,2.02-4.77c0-2.09-0.67-3.7-2.02-4.82
				c-1.35-1.12-3.32-1.68-5.91-1.68h-7.03v12.94h7.03C1184.17,496.21,1186.14,495.65,1187.49,494.53z"/>
			<path d="M1213.13,511.65c-3.11-1.67-5.54-3.97-7.3-6.9c-1.76-2.93-2.64-6.22-2.64-9.88c0-3.66,0.88-6.95,2.64-9.88
				c1.76-2.93,4.19-5.23,7.3-6.9c3.1-1.67,6.59-2.5,10.46-2.5c3.87,0,7.35,0.83,10.44,2.5c3.09,1.67,5.52,3.97,7.29,6.9
				c1.77,2.93,2.66,6.22,2.66,9.88c0,3.66-0.89,6.95-2.66,9.88c-1.78,2.93-4.21,5.23-7.29,6.9c-3.09,1.67-6.57,2.5-10.44,2.5
				C1219.72,514.15,1216.23,513.32,1213.13,511.65z M1229.55,505.29c1.77-1.01,3.17-2.42,4.18-4.23c1.01-1.81,1.52-3.87,1.52-6.18
				c0-2.31-0.51-4.37-1.52-6.18c-1.01-1.81-2.41-3.22-4.18-4.23c-1.77-1.01-3.76-1.52-5.96-1.52c-2.2,0-4.19,0.51-5.96,1.52
				c-1.78,1.01-3.17,2.42-4.18,4.23c-1.01,1.81-1.52,3.87-1.52,6.18c0,2.31,0.51,4.37,1.52,6.18c1.01,1.81,2.4,3.22,4.18,4.23
				c1.77,1.01,3.76,1.52,5.96,1.52C1225.79,506.81,1227.78,506.3,1229.55,505.29z"/>
			<path d="M1283.01,497.38c1.21,1.53,1.81,3.41,1.81,5.64c0,3.3-1.25,5.88-3.75,7.72c-2.5,1.85-6.08,2.77-10.73,2.77h-18.37v-37.27
				h17.36c4.33,0,7.7,0.83,10.12,2.5c2.41,1.67,3.62,4.05,3.62,7.14c0,1.85-0.46,3.47-1.38,4.87c-0.92,1.4-2.22,2.51-3.89,3.33
				C1280.07,494.76,1281.81,495.86,1283.01,497.38z M1260.54,491.68h8.04c1.88,0,3.3-0.38,4.26-1.14c0.96-0.76,1.44-1.89,1.44-3.38
				c0-1.46-0.49-2.57-1.46-3.35c-0.98-0.78-2.39-1.17-4.23-1.17h-8.04V491.68z M1276.09,502.33c0-3.09-2.02-4.63-6.07-4.63h-9.48
				v9.42h9.48C1274.07,507.13,1276.09,505.53,1276.09,502.33z"/>
			<path d="M1300.29,511.68c-3.07-1.65-5.48-3.94-7.24-6.87c-1.76-2.93-2.64-6.24-2.64-9.93c0-3.69,0.88-7,2.64-9.93
				c1.76-2.93,4.17-5.22,7.24-6.87c3.07-1.65,6.52-2.48,10.36-2.48c3.23,0,6.15,0.57,8.76,1.7c2.61,1.14,4.8,2.77,6.58,4.9
				l-5.54,5.11c-2.52-2.91-5.64-4.37-9.37-4.37c-2.31,0-4.37,0.51-6.18,1.52c-1.81,1.01-3.22,2.42-4.23,4.23
				c-1.01,1.81-1.52,3.87-1.52,6.18c0,2.31,0.51,4.37,1.52,6.18c1.01,1.81,2.42,3.22,4.23,4.23c1.81,1.01,3.87,1.52,6.18,1.52
				c3.73,0,6.85-1.47,9.37-4.42l5.54,5.11c-1.78,2.17-3.98,3.82-6.6,4.95c-2.63,1.14-5.56,1.7-8.79,1.7
				C1306.8,514.15,1303.36,513.33,1300.29,511.68z"/>
			<path d="M1347.39,498.5h-5.96v15.02h-8.57v-37.27h8.57v15.07h6.18l9.8-15.07h9.11l-12.19,18l12.57,19.28h-9.8L1347.39,498.5z"/>
			<path d="M1372.26,476.24h8.57v24.28l17.78-24.28h8.09v37.27h-8.52v-24.23l-17.78,24.23h-8.15V476.24z"/>
			<path d="M1417.3,476.24h8.57v24.28l17.78-24.28h8.09v37.27h-8.52v-24.23l-17.78,24.23h-8.15V476.24z M1424.17,465.7h5.91
				c0.07,2.59,1.54,3.89,4.42,3.89c1.42,0,2.5-0.33,3.25-0.99c0.75-0.66,1.14-1.62,1.17-2.9h5.91c-0.04,2.66-0.9,4.69-2.61,6.07
				c-1.7,1.38-4.28,2.08-7.72,2.08C1427.69,473.85,1424.24,471.13,1424.17,465.7z"/>
			<path d="M1517.86,506.41c-3.35,2.82-8.17,4.39-14.46,4.71v4.05h-7.93v-4.1c-6.32-0.35-11.16-1.94-14.51-4.77
				c-3.35-2.82-5.03-6.66-5.03-11.53c0-4.9,1.68-8.74,5.03-11.53c3.35-2.79,8.19-4.37,14.51-4.77v-3.83h7.93v3.78
				c6.28,0.36,11.1,1.95,14.46,4.79c3.35,2.84,5.03,6.69,5.03,11.55C1522.89,499.71,1521.21,503.59,1517.86,506.41z M1495.47,504.36
				v-19.12c-3.8,0.36-6.61,1.3-8.44,2.85c-1.83,1.54-2.74,3.77-2.74,6.68C1484.29,500.38,1488.01,503.58,1495.47,504.36z
				 M1511.82,501.46c1.85-1.58,2.77-3.82,2.77-6.74c0-5.68-3.73-8.84-11.18-9.48v19.12C1507.16,504,1509.97,503.04,1511.82,501.46z"
				/>
			<path d="M1530.66,476.24h8.57v24.28l17.78-24.28h8.09v37.27h-8.52v-24.23l-17.78,24.23h-8.15V476.24z"/>
			<path d="M1608.67,476.24v37.27h-8.52v-30.24h-12.78l-0.27,7.77c-0.18,5.29-0.6,9.58-1.28,12.86c-0.67,3.28-1.8,5.8-3.38,7.56
				c-1.58,1.76-3.79,2.64-6.63,2.64c-1.17,0-2.59-0.2-4.26-0.59l0.53-7.29c0.46,0.14,0.98,0.21,1.54,0.21c2.06,0,3.5-1.22,4.31-3.65
				c0.82-2.43,1.33-6.24,1.54-11.42l0.53-15.12H1608.67z"/>
			<path d="M1619.32,476.24h8.57v24.28l17.78-24.28h8.09v37.27h-8.52v-24.23l-17.78,24.23h-8.15V476.24z"/>
			<path d="M1689.61,505.53h-17.3l-3.3,7.99h-8.84l16.61-37.27h8.52l16.67,37.27h-9.05L1689.61,505.53z M1686.89,498.98l-5.91-14.27
				l-5.91,14.27H1686.89z"/>
			<path d="M1741.79,476.24v37.27h-8.52v-30.24h-12.78l-0.27,7.77c-0.18,5.29-0.6,9.58-1.28,12.86c-0.67,3.28-1.8,5.8-3.38,7.56
				c-1.58,1.76-3.79,2.64-6.63,2.64c-1.17,0-2.59-0.2-4.26-0.59l0.53-7.29c0.46,0.14,0.98,0.21,1.54,0.21c2.06,0,3.5-1.22,4.31-3.65
				c0.82-2.43,1.33-6.24,1.54-11.42l0.53-15.12H1741.79z"/>
		</g>
		<path d="M1741.79,370.04h-18.19v46.11h-12.99v-46.11h-18.1v-10.72h49.28V370.04z M1686.31,405.6v10.55h-44v-56.83h42.94v10.56
			h-29.88v12.34h26.39v10.23h-26.39v13.15H1686.31z M1632.62,370.04h-18.19v46.11h-12.98v-46.11h-18.1v-10.72h49.27V370.04z
			 M1521.12,359.33h13.07v37.02l27.11-37.02h12.34v56.83h-12.99v-36.94l-27.11,36.94h-12.43V359.33z M1487.64,417.13
			c-5.79,0-11.02-1.26-15.71-3.77c-4.68-2.52-8.36-6-11.04-10.47c-2.68-4.46-4.02-9.51-4.02-15.14c0-5.63,1.34-10.68,4.02-15.14
			c2.68-4.47,6.36-7.96,11.04-10.47c4.68-2.52,9.94-3.77,15.79-3.77c4.93,0,9.38,0.87,13.36,2.6c3.98,1.73,7.32,4.22,10.02,7.46
			l-8.44,7.8c-3.84-4.44-8.61-6.66-14.29-6.66c-3.52,0-6.66,0.77-9.42,2.31c-2.76,1.54-4.91,3.69-6.45,6.46
			c-1.54,2.76-2.31,5.9-2.31,9.42c0,3.52,0.77,6.65,2.31,9.42c1.54,2.76,3.69,4.91,6.45,6.45c2.77,1.54,5.9,2.31,9.42,2.31
			c5.68,0,10.44-2.24,14.29-6.73l8.44,7.79c-2.71,3.3-6.06,5.82-10.06,7.55C1497.04,416.26,1492.57,417.13,1487.64,417.13
			 M1424.46,389.77c3.95,0,6.95-0.85,9.01-2.56c2.05-1.71,3.08-4.13,3.08-7.27c0-3.19-1.03-5.64-3.08-7.35
			c-2.06-1.7-5.06-2.56-9.01-2.56h-10.72v19.73H1424.46z M1425.19,359.33c5.03,0,9.41,0.84,13.11,2.52c3.7,1.68,6.56,4.06,8.56,7.14
			c2.01,3.09,3,6.74,3,10.96c0,4.17-1,7.81-3,10.92c-2,3.12-4.86,5.49-8.56,7.14c-3.71,1.65-8.08,2.48-13.11,2.48h-11.45v15.66
			h-13.15v-56.83H1425.19z M1388.55,405.6v10.55h-44v-56.83h42.95v10.56h-29.88v12.34H1384v10.23h-26.39v13.15H1388.55z
			 M1310.18,406.41c6.17,0,9.26-2.43,9.26-7.3c0-4.71-3.09-7.06-9.26-7.06h-14.45v14.37H1310.18z M1295.73,382.87h12.26
			c2.87,0,5.03-0.58,6.49-1.74c1.46-1.17,2.19-2.88,2.19-5.16c0-2.22-0.74-3.93-2.23-5.11c-1.49-1.19-3.64-1.79-6.45-1.79h-12.26
			V382.87z M1322.03,386.52c3.46,1.03,6.11,2.71,7.95,5.04c1.85,2.33,2.77,5.19,2.77,8.6c0,5.03-1.91,8.95-5.73,11.77
			c-3.82,2.81-9.27,4.22-16.36,4.22h-28.01v-56.83h26.46c6.6,0,11.74,1.28,15.43,3.82c3.68,2.55,5.52,6.17,5.52,10.88
			c0,2.82-0.71,5.29-2.11,7.43C1326.55,383.59,1324.57,385.28,1322.03,386.52 M1214.6,359.33h13.07v37.02l27.12-37.02h12.34v56.83
			h-12.99v-36.94l-27.11,36.94h-12.42V359.33z M1198.97,359.33v56.83h-13.15v-23.3h-25.82v23.3h-13.15v-56.83h13.15v22.41h25.82
			v-22.41H1198.97z M1139.2,359.33l-24.19,44.97c-2.33,4.33-5.13,7.61-8.41,9.83c-3.27,2.22-6.83,3.33-10.67,3.33
			c-2.97,0-6.06-0.65-9.25-1.95l3.16-9.99c2.27,0.7,4.17,1.06,5.68,1.06c1.62,0,3.09-0.4,4.38-1.18c1.3-0.78,2.49-2.02,3.57-3.69
			l0.49-0.65l-22.41-41.73h14.04l15.1,30.52l15.58-30.52H1139.2z M1709.65,261.53c-10.39,0-15.64-4.14-15.75-12.42h9.01
			c0.11,3.95,2.36,5.93,6.74,5.93c2.17,0,3.82-0.5,4.95-1.5c1.13-1,1.73-2.48,1.79-4.43h9.01c-0.05,4.06-1.38,7.14-3.98,9.26
			C1718.83,260.47,1714.9,261.53,1709.65,261.53 M1683.43,265.18h13.07v37.02l27.12-37.02h12.34v56.83h-12.99v-36.94l-27.12,36.94
			h-12.42V265.18z M1616.78,265.18h13.07v37.02l27.11-37.02h12.34v56.83h-12.99v-36.94l-27.11,36.94h-12.43V265.18z M1580.9,299.12
			h-9.09v22.89h-13.07v-56.83h13.07v22.98h9.42l14.93-22.98h13.88l-18.59,27.44l19.15,29.39h-14.93L1580.9,299.12z M1526.83,322.98
			c-5.79,0-11.02-1.26-15.71-3.77s-8.36-6-11.04-10.47c-2.68-4.46-4.02-9.51-4.02-15.14c0-5.63,1.34-10.67,4.02-15.14
			c2.68-4.47,6.36-7.96,11.04-10.47s9.94-3.77,15.79-3.77c4.92,0,9.38,0.87,13.36,2.6c3.98,1.73,7.32,4.22,10.02,7.46l-8.44,7.8
			c-3.84-4.44-8.6-6.66-14.29-6.66c-3.51,0-6.66,0.77-9.42,2.31c-2.76,1.54-4.91,3.69-6.45,6.46c-1.54,2.76-2.31,5.9-2.31,9.41
			c0,3.52,0.77,6.66,2.31,9.42c1.54,2.76,3.69,4.91,6.45,6.45c2.76,1.54,5.9,2.31,9.42,2.31c5.68,0,10.45-2.24,14.29-6.73l8.44,7.79
			c-2.71,3.3-6.06,5.82-10.06,7.55C1536.22,322.12,1531.76,322.98,1526.83,322.98 M1489.49,311.46v10.55h-44v-56.83h42.95v10.56
			h-29.88v12.34h26.39v10.23h-26.39v13.15H1489.49z M1431.36,265.18v56.83h-12.99v-20.46c-4.93,1.79-9.5,2.68-13.72,2.68
			c-7.63,0-13.48-1.83-17.53-5.48c-4.06-3.65-6.09-8.91-6.09-15.79v-17.78h12.99v16.32c0,3.9,1.04,6.83,3.12,8.81
			c2.09,1.97,5.1,2.96,9.05,2.96c4.33,0,8.39-0.84,12.18-2.52v-25.57H1431.36z M1319.66,265.18h13.07v37.02l27.12-37.02h12.34v56.83
			h-12.99v-36.94l-27.11,36.94h-12.43V265.18z M1311.38,275.9h-18.19v46.11h-12.99V275.9h-18.1v-10.72h49.28V275.9z M1232.72,299.12
			h-9.1v22.89h-13.07v-56.83h13.07v22.98h9.42l14.94-22.98h13.88l-18.59,27.44l19.16,29.39h-14.93L1232.72,299.12z M1176.62,295.63
			c3.95,0,6.95-0.85,9.01-2.56c2.06-1.71,3.09-4.13,3.09-7.27c0-3.19-1.03-5.64-3.09-7.35c-2.05-1.7-5.06-2.56-9.01-2.56h-10.72
			v19.73H1176.62z M1177.35,265.18c5.03,0,9.4,0.84,13.11,2.52c3.71,1.68,6.57,4.06,8.57,7.14c2,3.09,3,6.74,3,10.96
			c0,4.17-1,7.81-3,10.92c-2,3.12-4.86,5.49-8.57,7.14c-3.7,1.65-8.08,2.48-13.11,2.48h-11.45v15.66h-13.16v-56.83H1177.35z
			 M1122.23,299.85l-9.01-21.75l-9.01,21.75H1122.23z M1126.37,309.83h-26.38l-5.04,12.18h-13.48l25.33-56.83h12.99l25.41,56.83
			h-13.8L1126.37,309.83z M1709.65,167.39c-10.39,0-15.64-4.14-15.75-12.42h9.01c0.11,3.95,2.35,5.93,6.73,5.93
			c2.17,0,3.82-0.5,4.95-1.5c1.13-1,1.73-2.48,1.79-4.43h9.01c-0.06,4.06-1.38,7.14-3.98,9.26
			C1718.82,166.33,1714.9,167.39,1709.65,167.39 M1683.43,171.04h13.07v37.02l27.11-37.02h12.34v56.83h-12.99v-36.94l-27.11,36.94
			h-12.42V171.04z M1615.78,171.04h13.07v37.02l27.11-37.02h12.34v56.83h-12.99v-36.94l-27.12,36.94h-12.42V171.04z M1578.89,204.98
			h-9.09v22.89h-13.07v-56.83h13.07v22.98h9.42l14.94-22.98h13.88l-18.59,27.44l19.16,29.39h-14.94L1578.89,204.98z M1523.83,228.84
			c-5.79,0-11.03-1.26-15.71-3.77s-8.36-6-11.04-10.47c-2.68-4.47-4.02-9.51-4.02-15.14c0-5.63,1.34-10.67,4.02-15.14
			c2.68-4.47,6.35-7.96,11.04-10.47c4.68-2.52,9.94-3.77,15.79-3.77c4.92,0,9.38,0.87,13.36,2.6c3.98,1.73,7.32,4.22,10.03,7.46
			l-8.44,7.8c-3.85-4.44-8.6-6.66-14.29-6.66c-3.52,0-6.66,0.77-9.42,2.31c-2.77,1.54-4.91,3.69-6.46,6.46
			c-1.54,2.76-2.31,5.9-2.31,9.41c0,3.52,0.77,6.66,2.31,9.42c1.54,2.77,3.69,4.91,6.46,6.46c2.76,1.54,5.9,2.31,9.42,2.31
			c5.68,0,10.44-2.25,14.29-6.73l8.44,7.79c-2.71,3.3-6.06,5.82-10.07,7.55S1528.75,228.84,1523.83,228.84 M1481.75,171.04v56.83
			h-13.15v-23.3h-25.82v23.3h-13.15v-56.83h13.15v22.41h25.82v-22.41H1481.75z M1398.11,205.71l-9.01-21.76l-9.01,21.76H1398.11z
			 M1402.25,215.69h-26.39l-5.03,12.18h-13.48l25.32-56.83h12.99l25.41,56.83h-13.8L1402.25,215.69z M1336.3,227.87l-0.08-34.02
			l-16.72,28.01h-5.84l-16.73-27.35v33.36h-12.34v-56.83h10.88l21.27,35.31l20.94-35.31h10.88l0.08,56.83H1336.3z M1249.49,201.48
			c3.95,0,6.95-0.85,9.01-2.55c2.06-1.71,3.09-4.13,3.09-7.27c0-3.19-1.03-5.64-3.09-7.35c-2.05-1.71-5.06-2.56-9.01-2.56h-10.72
			v19.72H1249.49z M1250.22,171.04c5.03,0,9.4,0.84,13.11,2.52c3.7,1.68,6.56,4.06,8.56,7.14c2,3.09,3,6.74,3,10.96
			c0,4.17-1,7.81-3,10.92c-2,3.12-4.86,5.49-8.56,7.14c-3.71,1.65-8.08,2.47-13.11,2.47h-11.45v15.67h-13.15v-56.83H1250.22z
			 M1218.37,171.04l-24.19,44.97c-2.33,4.33-5.13,7.61-8.4,9.83c-3.28,2.22-6.83,3.33-10.67,3.33c-2.97,0-6.06-0.65-9.25-1.95
			l3.16-9.99c2.27,0.7,4.17,1.06,5.68,1.06c1.62,0,3.09-0.4,4.39-1.18c1.3-0.78,2.49-2.02,3.57-3.69l0.49-0.65l-22.41-41.73h14.04
			l15.1,30.52l15.59-30.52H1218.37z M1139.6,227.87l-0.08-34.02l-16.72,28.01h-5.84l-16.73-27.35v33.36h-12.34v-56.83h10.88
			l21.27,35.31l20.94-35.31h10.88l0.08,56.83H1139.6z"/>
	</g>
</g>
</svg>
