<?xml version="1.0" encoding="utf-8"?>
<!-- Generator: Adobe Illustrator 27.2.0, SVG Export Plug-In . SVG Version: 6.00 Build 0)  -->
<svg version="1.1" id="Слой_1" xmlns="http://www.w3.org/2000/svg" xmlns:xlink="http://www.w3.org/1999/xlink" x="0px" y="0px"
	 viewBox="0 0 2005.79 685.21" style="enable-background:new 0 0 2005.79 685.21;" xml:space="preserve">
<style type="text/css">
	.st0{fill:#FFFFFF;}
	.st1{fill-rule:evenodd;clip-rule:evenodd;fill:#FFFFFF;}
</style>
<g>
	<g>
		<path class="st0" d="M597.84,253.14"/>
		<path class="st0" d="M554.26,334.19"/>
		<polygon class="st1" points="766.83,260.11 898.61,513.98 998.85,513.98 820.93,171.23 712.73,171.23 646.83,298.2 696.95,394.76 
					"/>
		<path class="st1" d="M477.15,467.75l-23.99,46.23H352.91l74.12-142.79L477.15,467.75z M584.93,260.11l131.77,253.87h100.24
			L639.03,171.23h-108.2L464.93,298.2l50.12,96.56L584.93,260.11z"/>
		<polygon class="st1" points="403.03,260.04 534.69,513.68 634.86,513.68 658.83,467.49 608.76,371.02 584.78,417.22 
			457.09,171.23 348.98,171.23 171.23,513.68 271.38,513.68 		"/>
	</g>
	<g>
		<path class="st0" d="M1834.57,171.23l-90.81,169.4c-9.6,18.16-21.35,31.94-35.22,41.33c-13.88,9.39-29.07,14.09-45.56,14.09
			c-12.11,0-25.05-2.71-38.82-8.14l14.71-45.71c8.56,2.51,15.87,3.76,21.92,3.76c6.05,0,11.43-1.36,16.12-4.07
			c4.7-2.72,9.03-7,12.99-12.84l-85.17-157.81h65.44l51.04,105.84l52.92-105.84H1834.57z M1513.3,302.11l-28.18-70.14l-28.18,70.14
			H1513.3z M1531.47,347.83h-92.69l-17.22,42.58h-63.25l96.76-219.18h61.06l97.07,219.18h-64.5L1531.47,347.83z M1276.27,390.41
			l-0.31-116.17l-56.37,94.56h-27.55l-56.36-92.06v113.66h-56.99V171.23h51.04l77.03,126.5l75.15-126.5h51.04l0.63,219.18H1276.27z"
			/>
	</g>
	<g>
		<path class="st0" d="M1095.93,495.52h-7.04v17.72h-10.12v-43.99h10.12v17.79h7.29l11.56-17.79h10.75l-14.39,21.24l14.83,22.75
			h-11.56L1095.93,495.52z"/>
		<path class="st0" d="M1123.71,469.25h10.12v28.66l20.99-28.66h9.55v43.99h-10.06v-28.6l-20.99,28.6h-9.62V469.25z"/>
		<path class="st0" d="M1204.5,471.2c2.87,1.3,5.08,3.14,6.63,5.53c1.55,2.39,2.33,5.22,2.33,8.48c0,3.23-0.78,6.04-2.33,8.45
			c-1.55,2.41-3.76,4.25-6.63,5.53c-2.87,1.28-6.25,1.92-10.15,1.92h-8.86v12.13h-10.18v-43.99h19.04
			C1198.25,469.25,1201.63,469.9,1204.5,471.2z M1200.76,490.84c1.59-1.32,2.39-3.19,2.39-5.63c0-2.47-0.8-4.37-2.39-5.69
			c-1.59-1.32-3.92-1.98-6.98-1.98h-8.3v15.27h8.3C1196.84,492.82,1199.17,492.16,1200.76,490.84z"/>
		<path class="st0" d="M1229.45,511.05c-3.67-1.97-6.54-4.68-8.61-8.14c-2.07-3.46-3.11-7.34-3.11-11.66c0-4.31,1.04-8.2,3.11-11.66
			c2.07-3.46,4.94-6.17,8.61-8.14c3.67-1.97,7.78-2.95,12.35-2.95c4.57,0,8.67,0.99,12.32,2.95c3.64,1.97,6.51,4.68,8.61,8.14
			c2.09,3.46,3.14,7.34,3.14,11.66c0,4.32-1.05,8.2-3.14,11.66c-2.1,3.46-4.97,6.17-8.61,8.14c-3.65,1.97-7.75,2.95-12.32,2.95
			C1237.23,514,1233.11,513.02,1229.45,511.05z M1248.84,503.54c2.09-1.19,3.74-2.86,4.93-5c1.19-2.14,1.79-4.57,1.79-7.29
			c0-2.72-0.6-5.15-1.79-7.29s-2.84-3.8-4.93-5c-2.1-1.19-4.44-1.79-7.04-1.79c-2.6,0-4.94,0.6-7.04,1.79
			c-2.1,1.19-3.74,2.86-4.93,5c-1.19,2.14-1.79,4.57-1.79,7.29c0,2.72,0.6,5.15,1.79,7.29c1.19,2.14,2.84,3.8,4.93,5
			c2.09,1.19,4.44,1.79,7.04,1.79C1244.4,505.33,1246.74,504.73,1248.84,503.54z"/>
		<path class="st0" d="M1310.36,494.2c1.42,1.8,2.14,4.02,2.14,6.66c0,3.9-1.48,6.94-4.43,9.11c-2.95,2.18-7.18,3.27-12.66,3.27
			h-21.68v-43.99h20.49c5.11,0,9.09,0.98,11.94,2.95c2.85,1.97,4.27,4.78,4.27,8.42c0,2.18-0.54,4.1-1.63,5.75
			c-1.09,1.66-2.62,2.96-4.59,3.93C1306.89,491.1,1308.94,492.4,1310.36,494.2z M1283.84,487.48h9.49c2.22,0,3.9-0.45,5.03-1.35
			c1.13-0.9,1.7-2.23,1.7-3.99c0-1.72-0.58-3.04-1.73-3.96c-1.15-0.92-2.82-1.38-5-1.38h-9.49V487.48z M1302.19,500.05
			c0-3.65-2.39-5.47-7.16-5.47h-11.19v11.12h11.19C1299.81,505.7,1302.19,503.82,1302.19,500.05z"/>
		<path class="st0" d="M1329.19,511.08c-3.62-1.95-6.47-4.65-8.55-8.11c-2.07-3.46-3.11-7.36-3.11-11.72
			c0-4.36,1.04-8.26,3.11-11.72c2.07-3.46,4.92-6.16,8.55-8.11c3.62-1.95,7.7-2.92,12.22-2.92c3.81,0,7.26,0.67,10.34,2.01
			c3.08,1.34,5.67,3.27,7.76,5.78l-6.54,6.03c-2.98-3.43-6.66-5.15-11.06-5.15c-2.72,0-5.15,0.6-7.29,1.79c-2.14,1.19-3.8,2.86-5,5
			c-1.19,2.14-1.79,4.57-1.79,7.29c0,2.72,0.6,5.15,1.79,7.29c1.19,2.14,2.86,3.8,5,5c2.14,1.19,4.57,1.79,7.29,1.79
			c4.4,0,8.09-1.74,11.06-5.22l6.54,6.03c-2.1,2.56-4.69,4.5-7.79,5.85c-3.1,1.34-6.56,2.01-10.37,2.01
			C1336.86,514,1332.81,513.02,1329.19,511.08z"/>
		<path class="st0" d="M1383.2,495.52h-7.04v17.72h-10.12v-43.99h10.12v17.79h7.29l11.56-17.79h10.75l-14.39,21.24l14.83,22.75
			h-11.56L1383.2,495.52z"/>
		<path class="st0" d="M1410.98,469.25h10.12v28.66l20.99-28.66h9.55v43.99h-10.06v-28.6l-20.99,28.6h-9.62V469.25z"/>
		<path class="st0" d="M1462.58,469.25h10.12v28.66l20.99-28.66h9.55v43.99h-10.06v-28.6l-20.99,28.6h-9.62V469.25z M1470.69,456.81
			h6.98c0.08,3.06,1.82,4.59,5.22,4.59c1.68,0,2.95-0.39,3.83-1.16c0.88-0.78,1.34-1.92,1.38-3.43h6.98
			c-0.04,3.14-1.07,5.53-3.08,7.16c-2.01,1.63-5.05,2.45-9.11,2.45C1474.83,466.42,1470.77,463.22,1470.69,456.81z"/>
		<path class="st0" d="M1578.12,504.86c-3.96,3.33-9.65,5.18-17.06,5.56v4.78h-9.36v-4.84c-7.46-0.42-13.17-2.29-17.13-5.63
			c-3.96-3.33-5.94-7.87-5.94-13.61c0-5.78,1.98-10.32,5.94-13.61c3.96-3.29,9.67-5.16,17.13-5.63v-4.52h9.36v4.46
			c7.42,0.42,13.1,2.3,17.06,5.66c3.96,3.35,5.94,7.9,5.94,13.64C1584.06,496.95,1582.08,501.52,1578.12,504.86z M1551.69,502.44
			v-22.56c-4.48,0.42-7.8,1.54-9.96,3.36c-2.16,1.82-3.24,4.45-3.24,7.89C1538.5,497.74,1542.9,501.51,1551.69,502.44z
			 M1570.99,499.01c2.18-1.86,3.27-4.51,3.27-7.95c0-6.7-4.4-10.43-13.2-11.19v22.56C1565.5,502.02,1568.81,500.88,1570.99,499.01z"
			/>
		<path class="st0" d="M1591.66,469.25h10.12v28.66l20.99-28.66h9.55v43.99h-10.06v-28.6l-20.99,28.6h-9.62V469.25z"/>
		<path class="st0" d="M1682.16,469.25v43.99h-10.06v-35.7h-15.08l-0.31,9.18c-0.21,6.24-0.71,11.3-1.51,15.18
			c-0.8,3.88-2.13,6.85-3.99,8.92c-1.86,2.07-4.47,3.11-7.82,3.11c-1.38,0-3.06-0.23-5.03-0.69l0.63-8.61
			c0.54,0.17,1.15,0.25,1.82,0.25c2.43,0,4.13-1.43,5.09-4.31c0.96-2.87,1.57-7.36,1.82-13.48l0.63-17.85H1682.16z"/>
		<path class="st0" d="M1693.16,469.25h10.12v28.66l20.99-28.66h9.55v43.99h-10.06v-28.6l-20.99,28.6h-9.62V469.25z"/>
		<path class="st0" d="M1774.55,503.82h-20.43l-3.9,9.43h-10.43l19.61-43.99h10.06l19.67,43.99h-10.68L1774.55,503.82z
			 M1771.34,496.09l-6.98-16.84l-6.98,16.84H1771.34z"/>
		<path class="st0" d="M1834.57,469.25v43.99h-10.06v-35.7h-15.08l-0.31,9.18c-0.21,6.24-0.71,11.3-1.51,15.18
			c-0.8,3.88-2.13,6.85-3.99,8.92c-1.86,2.07-4.47,3.11-7.82,3.11c-1.38,0-3.06-0.23-5.03-0.69l0.63-8.61
			c0.54,0.17,1.15,0.25,1.82,0.25c2.43,0,4.13-1.43,5.09-4.31c0.96-2.87,1.57-7.36,1.82-13.48l0.63-17.85H1834.57z"/>
	</g>
</g>
</svg>
