<?xml version="1.0" encoding="utf-8"?>
<!-- Generator: Adobe Illustrator 27.2.0, SVG Export Plug-In . SVG Version: 6.00 Build 0)  -->
<svg version="1.1" id="Слой_1" xmlns="http://www.w3.org/2000/svg" xmlns:xlink="http://www.w3.org/1999/xlink" x="0px" y="0px"
	 viewBox="0 0 1170.61 1202" style="enable-background:new 0 0 1170.61 1202;" xml:space="preserve">
<style type="text/css">
	.st0{fill-rule:evenodd;clip-rule:evenodd;fill:#FFFFFF;}
	.st1{fill:#FFFFFF;}
</style>
<g>
	<polygon class="st0" points="766.98,260.26 898.75,514.13 999,514.13 821.08,171.38 712.88,171.38 646.97,298.35 697.1,394.9 	"/>
	<path class="st0" d="M477.3,467.9l-23.99,46.23H353.06l74.12-142.79L477.3,467.9z M585.08,260.26l131.77,253.87h100.24
		L639.18,171.38h-108.2l-65.91,126.97l50.12,96.56L585.08,260.26z"/>
	<polygon class="st0" points="403.18,260.18 534.84,513.83 635.01,513.83 658.98,467.64 608.91,371.17 584.93,417.37 457.24,171.38 
		349.13,171.38 171.38,513.83 271.53,513.83 	"/>
	<path class="st1" d="M999.23,843.73h-22.81v57.83h-16.29v-57.83h-22.71v-13.44h61.81V843.73z M929.65,888.33v13.23h-55.18v-71.27
		h53.86v13.24h-37.47V859h33.1v12.83h-33.1v16.5H929.65z M862.31,843.73h-22.81v57.83h-16.28v-57.83h-22.71v-13.44h61.8V843.73z
		 M722.47,830.29h16.4v46.43l34-46.43h15.48v71.27h-16.29v-46.33l-34,46.33h-15.58V830.29z M680.48,902.79
		c-7.26,0-13.83-1.58-19.7-4.73c-5.87-3.16-10.49-7.53-13.85-13.14c-3.36-5.6-5.04-11.93-5.04-18.99c0-7.06,1.68-13.4,5.04-18.99
		c3.36-5.6,7.98-9.98,13.85-13.14c5.87-3.16,12.47-4.73,19.8-4.73c6.18,0,11.76,1.09,16.75,3.26c4.99,2.17,9.18,5.29,12.57,9.36
		l-10.58,9.78c-4.82-5.57-10.8-8.35-17.92-8.35c-4.41,0-8.35,0.97-11.82,2.9c-3.46,1.93-6.15,4.63-8.09,8.1
		c-1.93,3.46-2.9,7.4-2.9,11.81c0,4.41,0.97,8.34,2.9,11.81c1.94,3.46,4.63,6.15,8.09,8.09c3.47,1.93,7.41,2.9,11.82,2.9
		c7.12,0,13.1-2.81,17.92-8.45l10.58,9.77c-3.39,4.14-7.6,7.3-12.62,9.47C692.26,901.7,686.65,902.79,680.48,902.79 M601.22,868.48
		c4.96,0,8.72-1.07,11.3-3.21c2.57-2.14,3.86-5.18,3.86-9.12c0-4-1.29-7.08-3.86-9.21c-2.58-2.14-6.35-3.21-11.3-3.21h-13.44v24.75
		H601.22z M602.14,830.29c6.31,0,11.8,1.05,16.45,3.16c4.64,2.11,8.23,5.09,10.74,8.96c2.52,3.87,3.77,8.45,3.77,13.75
		c0,5.22-1.25,9.79-3.77,13.69c-2.51,3.91-6.1,6.89-10.74,8.96c-4.65,2.07-10.14,3.11-16.45,3.11h-14.36v19.65h-16.49v-71.27H602.14
		z M556.18,888.33v13.23h-55.19v-71.27h53.87v13.24h-37.47V859h33.1v12.83h-33.1v16.5H556.18z M457.89,889.34
		c7.74,0,11.61-3.05,11.61-9.16c0-5.91-3.87-8.86-11.61-8.86h-18.12v18.02H457.89z M439.77,859.82h15.38c3.59,0,6.31-0.73,8.14-2.19
		c1.83-1.47,2.75-3.62,2.75-6.47c0-2.78-0.93-4.93-2.8-6.42c-1.87-1.5-4.56-2.24-8.09-2.24h-15.38V859.82z M472.76,864.4
		c4.34,1.29,7.67,3.39,9.97,6.32c2.31,2.92,3.47,6.51,3.47,10.79c0,6.31-2.4,11.23-7.18,14.77c-4.79,3.53-11.62,5.29-20.52,5.29
		h-35.13v-71.27h33.19c8.28,0,14.73,1.6,19.35,4.79c4.61,3.19,6.92,7.74,6.92,13.64c0,3.54-0.89,6.64-2.65,9.32
		C478.42,860.72,475.94,862.84,472.76,864.4 M338.01,830.29h16.39v46.43l34.01-46.43h15.48v71.27h-16.3v-46.33l-34,46.33h-15.58
		V830.29z M318.41,830.29v71.27h-16.49v-29.22h-32.38v29.22h-16.49v-71.27h16.49v28.1h32.38v-28.1H318.41z M243.44,830.29
		l-30.34,56.4c-2.92,5.43-6.44,9.54-10.55,12.32c-4.1,2.78-8.57,4.18-13.39,4.18c-3.73,0-7.6-0.82-11.6-2.44l3.97-12.53
		c2.85,0.88,5.23,1.32,7.13,1.32c2.03,0,3.87-0.5,5.5-1.48c1.63-0.98,3.12-2.53,4.48-4.63l0.61-0.82l-28.1-52.33h17.62l18.94,38.28
		l19.54-38.28H243.44z M958.93,707.63c-13.03,0-19.62-5.19-19.75-15.58h11.3c0.13,4.96,2.95,7.43,8.45,7.43
		c2.72,0,4.79-0.62,6.21-1.88c1.42-1.26,2.17-3.11,2.24-5.55h11.3c-0.07,5.09-1.73,8.96-4.99,11.61
		C970.43,706.3,965.51,707.63,958.93,707.63 M926.04,712.21h16.39v46.43l34.01-46.43h15.48v71.27h-16.29v-46.33l-34.01,46.33h-15.58
		V712.21z M842.44,712.21h16.4v46.43l34-46.43h15.48v71.27h-16.29v-46.33l-34,46.33h-15.58V712.21z M797.44,754.77h-11.4v28.71
		h-16.4v-71.27h16.4v28.82h11.81l18.73-28.82H834l-23.32,34.41l24.02,36.86h-18.73L797.44,754.77z M729.63,784.71
		c-7.26,0-13.83-1.58-19.7-4.73c-5.87-3.16-10.49-7.53-13.85-13.14c-3.36-5.6-5.04-11.93-5.04-18.99c0-7.06,1.68-13.39,5.04-18.99
		c3.36-5.6,7.98-9.98,13.85-13.14c5.87-3.16,12.47-4.73,19.8-4.73c6.18,0,11.76,1.09,16.75,3.26c4.99,2.17,9.18,5.29,12.57,9.36
		l-10.59,9.78c-4.82-5.57-10.79-8.35-17.92-8.35c-4.41,0-8.35,0.97-11.81,2.9c-3.46,1.94-6.15,4.63-8.09,8.1
		c-1.94,3.46-2.9,7.4-2.9,11.8c0,4.42,0.97,8.35,2.9,11.82c1.94,3.46,4.63,6.15,8.09,8.09c3.46,1.94,7.4,2.9,11.81,2.9
		c7.13,0,13.11-2.81,17.92-8.45l10.59,9.77c-3.39,4.14-7.6,7.3-12.62,9.47C741.41,783.62,735.8,784.71,729.63,784.71 M682.79,770.25
		v13.23H627.6v-71.27h53.87v13.24h-37.47v15.47h33.1v12.83h-33.1v16.5H682.79z M609.89,712.21v71.27H593.6v-25.66
		c-6.18,2.24-11.92,3.36-17.21,3.36c-9.57,0-16.9-2.29-21.99-6.88c-5.09-4.58-7.64-11.18-7.64-19.8v-22.3h16.29v20.47
		c0,4.89,1.3,8.57,3.91,11.05c2.62,2.47,6.4,3.71,11.36,3.71c5.43,0,10.52-1.06,15.27-3.16v-32.08H609.89z M469.78,712.21h16.4
		v46.43l34.01-46.43h15.48v71.27h-16.3v-46.33l-34,46.33h-15.58V712.21z M459.4,725.65h-22.81v57.83H420.3v-57.83h-22.71v-13.44
		h61.81V725.65z M360.74,754.77h-11.41v28.71h-16.39v-71.27h16.39v28.82h11.81l18.74-28.82h17.41l-23.32,34.41L398,783.49h-18.73
		L360.74,754.77z M290.38,750.4c4.96,0,8.72-1.07,11.3-3.21c2.58-2.14,3.87-5.18,3.87-9.12c0-4-1.29-7.08-3.87-9.21
		c-2.57-2.14-6.34-3.21-11.3-3.21h-13.44v24.75H290.38z M291.29,712.21c6.31,0,11.8,1.05,16.44,3.16c4.65,2.11,8.24,5.09,10.75,8.96
		c2.51,3.87,3.77,8.45,3.77,13.75c0,5.22-1.26,9.79-3.77,13.69c-2.51,3.91-6.1,6.89-10.75,8.96c-4.64,2.07-10.13,3.11-16.44,3.11
		h-14.36v19.65h-16.5v-71.27H291.29z M222.15,755.69l-11.3-27.28l-11.3,27.28H222.15z M227.35,768.21h-33.09l-6.32,15.27h-16.9
		l31.77-71.27h16.29l31.87,71.27h-17.31L227.35,768.21z M958.92,589.55c-13.03,0-19.62-5.19-19.75-15.58h11.3
		c0.13,4.96,2.95,7.43,8.45,7.43c2.72,0,4.79-0.63,6.21-1.88c1.42-1.26,2.17-3.11,2.24-5.55h11.3c-0.07,5.09-1.73,8.96-4.99,11.61
		C970.43,588.22,965.51,589.55,958.92,589.55 M926.03,594.13h16.4v46.43l34-46.43h15.48v71.27h-16.29v-46.33l-34,46.33h-15.58
		V594.13z M841.18,594.13h16.4v46.43l34-46.43h15.48v71.27h-16.29v-46.33l-34.01,46.33h-15.58V594.13z M794.92,636.7h-11.4v28.71
		h-16.4v-71.27h16.4v28.82h11.81l18.73-28.82h17.41l-23.32,34.41l24.03,36.86h-18.74L794.92,636.7z M725.86,666.63
		c-7.26,0-13.84-1.58-19.71-4.73c-5.87-3.16-10.49-7.53-13.84-13.14c-3.36-5.6-5.05-11.93-5.05-18.99c0-7.06,1.68-13.39,5.05-18.99
		c3.36-5.6,7.97-9.98,13.84-13.14c5.87-3.16,12.47-4.73,19.8-4.73c6.18,0,11.77,1.09,16.75,3.26c4.99,2.17,9.18,5.29,12.58,9.36
		l-10.59,9.78c-4.82-5.57-10.79-8.35-17.92-8.35c-4.41,0-8.35,0.97-11.81,2.9c-3.47,1.93-6.16,4.63-8.1,8.1
		c-1.94,3.46-2.9,7.4-2.9,11.8c0,4.41,0.97,8.35,2.9,11.81c1.93,3.47,4.63,6.16,8.1,8.1c3.46,1.94,7.4,2.9,11.81,2.9
		c7.13,0,13.1-2.82,17.92-8.45l10.59,9.77c-3.39,4.14-7.61,7.29-12.63,9.47C737.63,665.54,732.04,666.63,725.86,666.63
		 M673.08,594.13v71.27h-16.49v-29.23h-32.38v29.23h-16.49v-71.27h16.49v28.1h32.38v-28.1H673.08z M568.17,637.61l-11.3-27.29
		l-11.3,27.29H568.17z M573.37,650.14h-33.1l-6.31,15.27h-16.9l31.76-71.27h16.29l31.88,71.27h-17.31L573.37,650.14z M490.66,665.41
		l-0.1-42.67l-20.97,35.13h-7.33l-20.98-34.31v41.85H425.8v-71.27h13.64l26.68,44.29l26.26-44.29h13.65l0.1,71.27H490.66z
		 M381.78,632.31c4.96,0,8.72-1.06,11.3-3.2c2.58-2.14,3.87-5.18,3.87-9.12c0-4-1.29-7.08-3.87-9.21c-2.58-2.14-6.34-3.21-11.3-3.21
		h-13.44v24.74H381.78z M382.69,594.13c6.31,0,11.8,1.05,16.45,3.16c4.64,2.11,8.23,5.09,10.74,8.96c2.51,3.87,3.77,8.45,3.77,13.75
		c0,5.22-1.26,9.79-3.77,13.69c-2.51,3.91-6.1,6.89-10.74,8.96c-4.65,2.07-10.14,3.1-16.45,3.1h-14.36v19.65h-16.5v-71.27H382.69z
		 M342.74,594.13l-30.34,56.4c-2.92,5.43-6.43,9.54-10.54,12.32c-4.11,2.78-8.57,4.18-13.39,4.18c-3.73,0-7.6-0.82-11.6-2.44
		l3.97-12.53c2.85,0.88,5.22,1.32,7.13,1.32c2.03,0,3.87-0.5,5.5-1.48c1.63-0.98,3.12-2.53,4.48-4.63l0.61-0.82l-28.11-52.33h17.62
		L307,632.42l19.55-38.28H342.74z M243.95,665.41l-0.1-42.67l-20.97,35.13h-7.33l-20.98-34.31v41.85h-15.47v-71.27h13.64
		l26.68,44.29l26.26-44.29h13.65l0.1,71.27H243.95z"/>
	<g>
		<path class="st1" d="M189.6,1011.8h-7.48v18.83h-10.75V983.9h10.75v18.89h7.74l12.28-18.89h11.42l-15.29,22.56l15.75,24.17h-12.28
			L189.6,1011.8z"/>
		<path class="st1" d="M220.78,983.9h10.75v30.44l22.3-30.44h10.15v46.73h-10.68v-30.37l-22.3,30.37h-10.21V983.9z"/>
		<path class="st1" d="M308.26,985.97c3.05,1.38,5.4,3.34,7.04,5.87c1.65,2.54,2.47,5.54,2.47,9.01c0,3.43-0.82,6.42-2.47,8.98
			c-1.65,2.56-3.99,4.52-7.04,5.87c-3.05,1.36-6.64,2.04-10.78,2.04h-9.41v12.88h-10.81V983.9h20.23
			C301.62,983.9,305.21,984.59,308.26,985.97z M304.29,1006.83c1.69-1.4,2.54-3.39,2.54-5.98c0-2.63-0.85-4.64-2.54-6.04
			c-1.69-1.4-4.16-2.1-7.41-2.1h-8.81v16.22h8.81C300.13,1008.93,302.6,1008.23,304.29,1006.83z"/>
		<path class="st1" d="M336.43,1028.29c-3.89-2.09-6.94-4.97-9.15-8.64c-2.2-3.67-3.3-7.8-3.3-12.38c0-4.58,1.1-8.71,3.3-12.38
			c2.2-3.67,5.25-6.55,9.15-8.64c3.89-2.09,8.27-3.14,13.12-3.14c4.85,0,9.21,1.05,13.08,3.14c3.87,2.09,6.92,4.97,9.15,8.64
			c2.22,3.67,3.34,7.8,3.34,12.38c0,4.58-1.11,8.71-3.34,12.38c-2.23,3.67-5.27,6.55-9.15,8.64c-3.87,2.09-8.23,3.14-13.08,3.14
			C344.7,1031.43,340.33,1030.38,336.43,1028.29z M357.03,1020.31c2.23-1.27,3.97-3.04,5.24-5.31c1.27-2.27,1.9-4.85,1.9-7.74
			c0-2.89-0.63-5.47-1.9-7.74s-3.02-4.04-5.24-5.31c-2.23-1.27-4.72-1.9-7.48-1.9c-2.76,0-5.25,0.63-7.48,1.9
			c-2.23,1.27-3.97,3.04-5.24,5.31s-1.9,4.85-1.9,7.74c0,2.89,0.63,5.47,1.9,7.74c1.27,2.27,3.01,4.04,5.24,5.31
			c2.23,1.27,4.72,1.9,7.48,1.9C352.31,1022.22,354.8,1021.58,357.03,1020.31z"/>
		<path class="st1" d="M424.05,1010.4c1.51,1.91,2.27,4.27,2.27,7.08c0,4.14-1.57,7.37-4.71,9.68c-3.14,2.31-7.62,3.47-13.45,3.47
			h-23.03V983.9h21.76c5.43,0,9.66,1.05,12.68,3.14c3.03,2.09,4.54,5.07,4.54,8.95c0,2.32-0.58,4.35-1.74,6.11
			c-1.16,1.76-2.78,3.15-4.87,4.17C420.36,1007.11,422.54,1008.49,424.05,1010.4z M395.88,1003.26h10.08c2.36,0,4.14-0.48,5.34-1.44
			c1.2-0.96,1.8-2.37,1.8-4.24c0-1.82-0.61-3.23-1.84-4.21c-1.23-0.98-2.99-1.47-5.31-1.47h-10.08V1003.26z M415.37,1016.61
			c0-3.87-2.54-5.81-7.61-5.81h-11.88v11.82h11.88C412.84,1022.62,415.37,1020.61,415.37,1016.61z"/>
		<path class="st1" d="M445.72,1028.32c-3.85-2.07-6.88-4.94-9.08-8.61c-2.2-3.67-3.3-7.82-3.3-12.45c0-4.63,1.1-8.78,3.3-12.45
			c2.2-3.67,5.23-6.54,9.08-8.61c3.85-2.07,8.18-3.1,12.98-3.1c4.05,0,7.71,0.71,10.98,2.14c3.27,1.42,6.02,3.47,8.24,6.14
			l-6.94,6.41c-3.16-3.65-7.08-5.47-11.75-5.47c-2.89,0-5.47,0.63-7.74,1.9c-2.27,1.27-4.04,3.04-5.31,5.31s-1.9,4.85-1.9,7.74
			c0,2.89,0.63,5.47,1.9,7.74c1.27,2.27,3.04,4.04,5.31,5.31c2.27,1.27,4.85,1.9,7.74,1.9c4.67,0,8.59-1.85,11.75-5.54l6.94,6.41
			c-2.23,2.72-4.98,4.78-8.28,6.21c-3.29,1.42-6.97,2.14-11.02,2.14C453.87,1031.43,449.56,1030.39,445.72,1028.32z"/>
		<path class="st1" d="M504.76,1011.8h-7.48v18.83h-10.75V983.9h10.75v18.89h7.74l12.28-18.89h11.42l-15.29,22.56l15.75,24.17
			h-12.28L504.76,1011.8z"/>
		<path class="st1" d="M535.94,983.9h10.75v30.44l22.3-30.44h10.15v46.73h-10.68v-30.37l-22.3,30.37h-10.21V983.9z"/>
		<path class="st1" d="M592.41,983.9h10.75v30.44l22.3-30.44h10.15v46.73h-10.68v-30.37l-22.3,30.37h-10.21V983.9z M601.03,970.68
			h7.41c0.09,3.25,1.94,4.87,5.54,4.87c1.78,0,3.14-0.41,4.07-1.23c0.93-0.82,1.42-2.04,1.47-3.64h7.41
			c-0.04,3.34-1.14,5.87-3.27,7.61c-2.14,1.74-5.36,2.6-9.68,2.6C605.43,980.89,601.12,977.49,601.03,970.68z"/>
		<path class="st1" d="M718.49,1021.72c-4.21,3.54-10.25,5.51-18.12,5.91v5.07h-9.95v-5.14c-7.92-0.44-13.99-2.44-18.19-5.97
			s-6.31-8.36-6.31-14.45c0-6.14,2.1-10.96,6.31-14.45c4.21-3.49,10.27-5.48,18.19-5.97v-4.81h9.95v4.74
			c7.88,0.45,13.92,2.45,18.12,6.01c4.21,3.56,6.31,8.39,6.31,14.49C724.79,1013.31,722.69,1018.18,718.49,1021.72z M690.41,1019.14
			v-23.97c-4.76,0.45-8.29,1.64-10.58,3.57c-2.29,1.94-3.44,4.73-3.44,8.38C676.39,1014.16,681.07,1018.17,690.41,1019.14z
			 M710.91,1015.51c2.31-1.98,3.47-4.8,3.47-8.44c0-7.12-4.67-11.08-14.02-11.88v23.97C705.08,1018.7,708.59,1017.49,710.91,1015.51
			z"/>
		<path class="st1" d="M734.54,983.9h10.75v30.44l22.3-30.44h10.15v46.73h-10.68v-30.37l-22.3,30.37h-10.21V983.9z"/>
		<path class="st1" d="M832.34,983.9v46.73h-10.68v-37.92h-16.02l-0.33,9.75c-0.22,6.63-0.76,12.01-1.6,16.12
			c-0.85,4.12-2.26,7.28-4.24,9.48c-1.98,2.2-4.75,3.31-8.31,3.31c-1.47,0-3.25-0.25-5.34-0.73l0.67-9.15
			c0.58,0.18,1.22,0.27,1.94,0.27c2.58,0,4.38-1.52,5.41-4.57c1.02-3.05,1.67-7.82,1.94-14.32l0.67-18.96H832.34z"/>
		<path class="st1" d="M845.69,983.9h10.75v30.44l22.3-30.44h10.15v46.73H878.2v-30.37l-22.3,30.37h-10.21V983.9z"/>
		<path class="st1" d="M933.81,1020.61h-21.7l-4.14,10.01H896.9l20.83-46.73h10.68l20.89,46.73h-11.35L933.81,1020.61z
			 M930.41,1012.4L923,994.51l-7.41,17.89H930.41z"/>
		<path class="st1" d="M999.23,983.9v46.73h-10.68v-37.92h-16.02l-0.33,9.75c-0.22,6.63-0.76,12.01-1.6,16.12
			c-0.85,4.12-2.26,7.28-4.24,9.48c-1.98,2.2-4.75,3.31-8.31,3.31c-1.47,0-3.25-0.25-5.34-0.73l0.67-9.15
			c0.58,0.18,1.22,0.27,1.94,0.27c2.58,0,4.38-1.52,5.41-4.57c1.02-3.05,1.67-7.82,1.94-14.32l0.67-18.96H999.23z"/>
	</g>
</g>
</svg>
