<?xml version="1.0" encoding="utf-8"?>
<!-- Generator: Adobe Illustrator 27.2.0, SVG Export Plug-In . SVG Version: 6.00 Build 0)  -->
<svg version="1.1" id="Слой_1" xmlns="http://www.w3.org/2000/svg" xmlns:xlink="http://www.w3.org/1999/xlink" x="0px" y="0px"
	 viewBox="0 0 1170.38 1115.29" style="enable-background:new 0 0 1170.38 1115.29;" xml:space="preserve">
<style type="text/css">
	.st0{fill-rule:evenodd;clip-rule:evenodd;fill:#FFFFFF;}
	.st1{fill:#FFFFFF;}
</style>
<g>
	<polygon class="st0" points="766.98,260.26 898.75,514.13 999,514.13 821.08,171.38 712.88,171.38 646.97,298.35 697.1,394.91 	"/>
	<path class="st0" d="M477.3,467.9l-23.99,46.23H353.06l74.12-142.79L477.3,467.9z M585.08,260.26l131.77,253.87h100.24
		L639.18,171.38h-108.2l-65.91,126.97l50.12,96.56L585.08,260.26z"/>
	<polygon class="st0" points="403.18,260.19 534.84,513.83 635.01,513.83 658.98,467.64 608.91,371.17 584.93,417.37 457.24,171.38 
		349.13,171.38 171.38,513.83 271.53,513.83 	"/>
	<g>
		<path class="st1" d="M971.34,593.87l-92.66,172.86c-9.8,18.53-21.78,32.59-35.95,42.17c-14.17,9.59-29.66,14.38-46.49,14.38
			c-12.36,0-25.56-2.77-39.62-8.31l15.02-46.65c8.73,2.56,16.19,3.84,22.37,3.84c6.18,0,11.66-1.39,16.46-4.16
			c4.79-2.77,9.21-7.14,13.26-13.1l-86.91-161.04h66.78l52.08,108l54-108H971.34z M643.51,727.43l-28.76-71.57L586,727.43H643.51z
			 M662.04,774.08h-94.58l-17.57,43.45h-64.54l98.73-223.66h62.31l99.05,223.66h-65.82L662.04,774.08z M401.64,817.53l-0.32-118.54
			l-57.51,96.5h-28.12l-57.51-93.94v115.98h-58.15V593.87h52.08l78.6,129.09l76.69-129.09h52.08l0.64,223.66H401.64z"/>
	</g>
	<g>
		<path class="st1" d="M217.53,925.58h-7.18v18.48h-10.33v-45.88h10.33v18.55h7.44l11.8-18.55h10.97l-14.69,22.15L241,944.06h-11.8
			L217.53,925.58z"/>
		<path class="st1" d="M245.88,898.18h10.33v29.89l21.42-29.89h9.75v45.88h-10.26v-29.82l-21.42,29.82h-9.81V898.18z"/>
		<path class="st1" d="M328.33,900.21c2.93,1.35,5.18,3.28,6.77,5.77c1.58,2.49,2.37,5.44,2.37,8.85c0,3.37-0.79,6.3-2.37,8.82
			c-1.58,2.51-3.84,4.44-6.77,5.77c-2.93,1.33-6.38,2-10.36,2h-9.04v12.65h-10.39v-45.88h19.43
			C321.95,898.18,325.4,898.86,328.33,900.21z M324.51,920.7c1.63-1.38,2.44-3.33,2.44-5.87c0-2.58-0.81-4.56-2.44-5.93
			c-1.63-1.38-4-2.06-7.12-2.06h-8.47v15.93h8.47C320.52,922.76,322.89,922.07,324.51,920.7z"/>
		<path class="st1" d="M353.8,941.77c-3.74-2.05-6.67-4.88-8.79-8.49c-2.12-3.6-3.17-7.66-3.17-12.16s1.06-8.55,3.17-12.16
			c2.12-3.61,5.04-6.43,8.79-8.49c3.74-2.05,7.94-3.08,12.6-3.08c4.66,0,8.85,1.03,12.57,3.08c3.72,2.05,6.65,4.88,8.79,8.49
			c2.14,3.6,3.21,7.66,3.21,12.16s-1.07,8.55-3.21,12.16c-2.14,3.61-5.07,6.43-8.79,8.49c-3.72,2.05-7.91,3.08-12.57,3.08
			C361.74,944.85,357.54,943.82,353.8,941.77z M373.58,933.94c2.14-1.25,3.82-2.98,5.03-5.21s1.83-4.76,1.83-7.6
			c0-2.84-0.61-5.38-1.83-7.6s-2.9-3.97-5.03-5.21c-2.14-1.25-4.53-1.87-7.18-1.87c-2.65,0-5.05,0.62-7.18,1.87
			c-2.14,1.25-3.82,2.98-5.03,5.21c-1.22,2.23-1.83,4.76-1.83,7.6c0,2.84,0.61,5.37,1.83,7.6c1.22,2.23,2.9,3.97,5.03,5.21
			s4.53,1.87,7.18,1.87C369.05,935.8,371.45,935.18,373.58,933.94z"/>
		<path class="st1" d="M436.38,924.2c1.45,1.88,2.18,4.19,2.18,6.95c0,4.06-1.51,7.23-4.52,9.5c-3.01,2.27-7.32,3.41-12.92,3.41
			h-22.13v-45.88h20.91c5.22,0,9.28,1.03,12.19,3.08c2.91,2.05,4.36,4.98,4.36,8.78c0,2.27-0.56,4.27-1.67,6
			c-1.11,1.73-2.67,3.09-4.68,4.1C432.83,920.97,434.92,922.32,436.38,924.2z M409.31,917.19H419c2.27,0,3.98-0.47,5.13-1.41
			c1.15-0.94,1.73-2.33,1.73-4.16c0-1.79-0.59-3.17-1.76-4.13c-1.18-0.96-2.88-1.44-5.1-1.44h-9.69V917.19z M428.04,930.3
			c0-3.8-2.44-5.7-7.31-5.7h-11.42v11.6h11.42C425.6,936.2,428.04,934.23,428.04,930.3z"/>
		<path class="st1" d="M455.59,941.8c-3.7-2.03-6.61-4.85-8.72-8.46c-2.12-3.6-3.17-7.68-3.17-12.22c0-4.54,1.06-8.62,3.17-12.22
			c2.12-3.6,5.02-6.42,8.72-8.46c3.7-2.03,7.86-3.05,12.48-3.05c3.89,0,7.41,0.7,10.55,2.1c3.14,1.4,5.78,3.41,7.92,6.03l-6.67,6.29
			c-3.04-3.58-6.8-5.37-11.29-5.37c-2.78,0-5.26,0.62-7.44,1.87c-2.18,1.25-3.88,2.98-5.1,5.21c-1.22,2.23-1.83,4.76-1.83,7.6
			c0,2.84,0.61,5.37,1.83,7.6c1.22,2.23,2.92,3.97,5.1,5.21c2.18,1.25,4.66,1.87,7.44,1.87c4.49,0,8.25-1.81,11.29-5.44l6.67,6.29
			c-2.14,2.67-4.79,4.7-7.95,6.1c-3.17,1.4-6.69,2.1-10.58,2.1C463.42,944.85,459.29,943.83,455.59,941.8z"/>
		<path class="st1" d="M510.72,925.58h-7.18v18.48h-10.33v-45.88h10.33v18.55h7.44l11.8-18.55h10.97l-14.69,22.15l15.14,23.73h-11.8
			L510.72,925.58z"/>
		<path class="st1" d="M539.07,898.18h10.33v29.89l21.42-29.89h9.75v45.88h-10.26v-29.82l-21.42,29.82h-9.81V898.18z"/>
		<path class="st1" d="M591.73,898.18h10.33v29.89l21.42-29.89h9.75v45.88h-10.26v-29.82l-21.42,29.82h-9.81V898.18z M600,885.2
			h7.12c0.09,3.19,1.86,4.78,5.32,4.78c1.71,0,3.01-0.4,3.91-1.21c0.9-0.81,1.37-2,1.41-3.57h7.12c-0.04,3.28-1.09,5.77-3.14,7.47
			c-2.05,1.7-5.15,2.56-9.3,2.56C604.24,895.23,600.09,891.89,600,885.2z"/>
		<path class="st1" d="M709.65,935.31c-4.04,3.47-9.85,5.41-17.41,5.8v4.98h-9.56v-5.05c-7.61-0.44-13.44-2.39-17.48-5.87
			c-4.04-3.47-6.06-8.2-6.06-14.19c0-6.03,2.02-10.76,6.06-14.19c4.04-3.43,9.87-5.38,17.48-5.87v-4.72h9.56v4.65
			c7.57,0.44,13.37,2.4,17.41,5.9c4.04,3.5,6.06,8.24,6.06,14.22C715.72,927.06,713.69,931.84,709.65,935.31z M682.68,932.79v-23.53
			c-4.58,0.44-7.96,1.61-10.17,3.51c-2.2,1.9-3.3,4.64-3.3,8.23C669.21,927.9,673.7,931.83,682.68,932.79z M702.37,929.22
			c2.22-1.94,3.34-4.71,3.34-8.29c0-6.99-4.49-10.88-13.47-11.67v23.53C696.77,932.35,700.15,931.16,702.37,929.22z"/>
		<path class="st1" d="M723.48,898.18h10.33v29.89l21.42-29.89h9.75v45.88h-10.26v-29.82l-21.42,29.82h-9.81V898.18z"/>
		<path class="st1" d="M815.84,898.18v45.88h-10.26v-37.23h-15.39l-0.32,9.57c-0.21,6.51-0.73,11.79-1.54,15.83
			c-0.81,4.04-2.17,7.14-4.07,9.31c-1.9,2.16-4.57,3.24-7.99,3.24c-1.41,0-3.12-0.24-5.13-0.72l0.64-8.98
			c0.56,0.18,1.18,0.26,1.86,0.26c2.48,0,4.21-1.5,5.2-4.49c0.98-2.99,1.6-7.68,1.86-14.06l0.64-18.62H815.84z"/>
		<path class="st1" d="M827.06,898.18h10.33v29.89l21.42-29.89h9.75v45.88H858.3v-29.82l-21.42,29.82h-9.81V898.18z"/>
		<path class="st1" d="M910.13,934.23h-20.85l-3.98,9.83h-10.65l20.01-45.88h10.26l20.08,45.88h-10.9L910.13,934.23z M906.86,926.17
			l-7.12-17.57l-7.12,17.57H906.86z"/>
		<path class="st1" d="M971.38,898.18v45.88h-10.26v-37.23h-15.39l-0.32,9.57c-0.21,6.51-0.73,11.79-1.54,15.83
			c-0.81,4.04-2.17,7.14-4.07,9.31c-1.9,2.16-4.56,3.24-7.99,3.24c-1.41,0-3.12-0.24-5.13-0.72l0.64-8.98
			c0.56,0.18,1.18,0.26,1.86,0.26c2.48,0,4.21-1.5,5.2-4.49c0.98-2.99,1.6-7.68,1.86-14.06l0.64-18.62H971.38z"/>
	</g>
</g>
</svg>
